# xmcd
#
# Track frame offsets:
# 150
# 16080
# 32360
# 54277
# 70552
# 89032
# 104502
# 117545
# 132170
# 149565
# 167050
# 183007
# 199045
# 215412
# 231410
# 250422
#
# Disc length: 3599 seconds
#
#
# Revision: 2
# Processed by: cddbd v1.5.1PL0 Copyright (c) Steve Scherf et al.
# Submitted via: FreeRIP 2.52 
#
DISCID=e00e0d10
DTITLE=Shania Twain - Come On Over
DYEAR=1999
DGENRE=Pop
TTITLE0=Your Still The One
TTITLE1=When
TTITLE2=From This Moment On
TTITLE3=Black Eyes, Blue Tears
TTITLE4=I Wont Leave You Lonely
TTITLE5=Holdin On To Love (To Save My Life)
TTITLE6=Come On Over
TTITLE7=Youve Got A Way
TTITLE8=Whatever You Do, Dont
TTITLE9=Man I Feel Like A Woman
TTITLE10=Love Gets Me Every Time
TTITLE11=Dont Be Stupid (You Know I Love You)
TTITLE12=That Dont Impress Me Much
TTITLE13=Honey I'm Home
TTITLE14=If You Wanna Touch Her Ask!
TTITLE15=Rock This Country
EXTD=
EXTT0=
EXTT1=
EXTT2=
EXTT3=
EXTT4=
EXTT5=
EXTT6=
EXTT7=
EXTT8=
EXTT9=
EXTT10=
EXTT11=
EXTT12=
EXTT13=
EXTT14=
EXTT15=
PLAYORDER=
